<?xml version="1.0" encoding="UTF-8" standalone="no"?> <!-- Created with Vectornator for iOS (http://vectornator.io/) --><!DOCTYPE svg PUBLIC "-//W3C//DTD SVG 1.1//EN" "http://www.w3.org/Graphics/SVG/1.1/DTD/svg11.dtd">
<svg style="fill-rule:evenodd;clip-rule:evenodd;stroke-linecap:round;stroke-linejoin:round;" xmlns:vectornator="http://vectornator.io" xmlns:xlink="http://www.w3.org/1999/xlink" xmlns="http://www.w3.org/2000/svg" xml:space="preserve" version="1.1" viewBox="0 0 1080 1080">
<metadata>
<vectornator:setting key="DimensionsVisible" value="1"/>
<vectornator:setting key="SnapToGrid" value="0"/>
<vectornator:setting key="SnapToPoints" value="0"/>
<vectornator:setting key="GuidesVisible" value="1"/>
<vectornator:setting key="RulersVisible" value="1"/>
<vectornator:setting key="SnapToEdges" value="0"/>
<vectornator:setting key="DisplayWhiteBackground" value="0"/>
<vectornator:setting key="SnapToGuides" value="1"/>
<vectornator:setting key="GridSpacing" value="36"/>
<vectornator:setting key="Units" value="Pixels"/>
<vectornator:setting key="DynamicGuides" value="1"/>
<vectornator:setting key="New" value="1"/>
</metadata>
<defs/>
<g id="Layer 1" vectornator:layerName="Layer 1">
<path d="M235.489+106.657C235.489+100.189+230.245+94.9454+223.777+94.9454C217.309+94.9454+212.065+100.189+212.065+106.657C212.065+113.126+217.309+118.369+223.777+118.369C230.245+118.369+235.489+113.126+235.489+106.657Z" opacity="1" fill="#f1bc19"/>
<path d="M973.343+540C973.343+300.671+779.329+106.657+540+106.657C300.671+106.657+106.657+300.671+106.657+540C106.657+779.329+300.671+973.343+540+973.343C779.329+973.343+973.343+779.329+973.343+540Z" opacity="1" fill="#6fc9fe"/>
<path d="M200.353+130.081C200.353+104.208+179.379+83.2334+153.505+83.2334C127.632+83.2334+106.657+104.208+106.657+130.081C106.657+155.955+127.632+176.929+153.505+176.929C179.379+176.929+200.353+155.955+200.353+130.081Z" opacity="1" fill="#f1bc19"/>
<path d="M130.081+235.489C130.081+222.552+119.594+212.065+106.657+212.065C93.7207+212.065+83.2334+222.552+83.2334+235.489C83.2334+248.426+93.7207+258.913+106.657+258.913C119.594+258.913+130.081+248.426+130.081+235.489Z" opacity="1" fill="#090c82"/>
<path d="M200.353+844.511C200.353+831.574+189.866+821.087+176.929+821.087C163.992+821.087+153.505+831.574+153.505+844.511C153.505+857.448+163.992+867.935+176.929+867.935C189.866+867.935+200.353+857.448+200.353+844.511Z" opacity="1" fill="#fbcd59"/>
<path d="M996.767+692.256C996.767+666.382+975.792+645.408+949.919+645.408C924.045+645.408+903.071+666.382+903.071+692.256C903.071+718.129+924.045+739.103+949.919+739.103C975.792+739.103+996.767+718.129+996.767+692.256Z" opacity="1" fill="#fbcd59"/>
<path d="M856.223+973.343C856.223+960.406+845.736+949.919+832.799+949.919C819.862+949.919+809.375+960.406+809.375+973.343C809.375+986.279+819.862+996.767+832.799+996.767C845.736+996.767+856.223+986.279+856.223+973.343Z" opacity="1" fill="#171a8c"/>
<path d="M913.499+553.827C913.499+534.051+897.467+518.019+877.691+518.019C857.915+518.019+841.883+534.051+841.883+553.827C841.883+573.603+857.915+589.635+877.691+589.635C897.467+589.635+913.499+573.603+913.499+553.827Z" opacity="1" fill="#ffffff"/>
<path d="M212.065+346.753C212.065+337.05+204.2+329.185+194.497+329.185C184.795+329.185+176.929+337.05+176.929+346.753C176.929+356.455+184.795+364.321+194.497+364.321C204.2+364.321+212.065+356.455+212.065+346.753Z" opacity="1" fill="#ffffff"/>
<path d="M856.481+337.98L365.14+395.826L444.419+491.407C445.988+493.304+446.621+495.799+446.152+498.212L428.619+588.253C428.619+588.253+524.341+578.649+524.61+578.649C526.707+578.649+528.745+579.458+530.279+580.922L583.205+631.552L856.481+337.98Z" opacity="1" fill="#ffffff"/>
<path d="M835.282+348.732L381.092+402.209L450.731+486.184C453.87+489.966+455.147+494.956+454.21+499.781L438.785+578.989L522.983+570.521C523.533+570.475+524.072+570.439+524.622+570.439C528.827+570.439+532.891+572.056+535.959+574.984L582.878+619.864L835.282+348.732M877.691+327.229L583.557+643.206L524.634+586.848L418.488+597.517L438.129+496.654L349.224+389.454L877.691+327.229L877.691+327.229Z" opacity="1" fill="#472b29"/>
<path d="M430.411+589.635L488.983+535.737L859.186+336.868L448.436+489.1L430.411+589.635Z" opacity="1" fill="#afafaf"/>
<path d="M430.411+596.288C432.051+596.288+433.655+595.69+434.92+594.531L492.848+541.171L862.325+342.712C865.393+341.061+866.67+337.313+865.253+334.127C863.836+330.953+860.205+329.395+856.879+330.637L446.117+482.857C443.915+483.677+442.299+485.598+441.889+487.917L423.888+588.464C423.384+591.263+424.719+594.086+427.237+595.456C428.221+596.018+429.322+596.288+430.411+596.288ZM771.382+376.489L485.82+529.881C485.329+530.15+484.872+530.466+484.45+530.841L440.425+571.388L454.28+493.995L771.382+376.489Z" opacity="1" fill="#472b29"/>
<path d="M430.411+596.288C432.016+596.288+433.632+595.702+434.92+594.531L492.848+541.171L862.325+342.712C865.393+341.061+866.67+337.336+865.253+334.139C863.848+330.965+860.229+329.395+856.926+330.602L441.139+481.522C437.684+482.775+435.904+486.582+437.169+490.037C438.399+493.492+442.193+495.284+445.684+494.007L775.317+374.358L485.832+529.869C485.34+530.139+484.883+530.455+484.462+530.83L425.914+584.74C423.22+587.234+423.044+591.439+425.527+594.133C426.839+595.562+428.619+596.288+430.411+596.288Z" opacity="1" fill="#472b29"/>
<path d="M532.34+590.244C533.933+590.244+535.526+589.67+536.803+588.523C539.508+586.063+539.731+581.87+537.259+579.141L493.878+531.275C491.395+528.581+487.214+528.37+484.497+530.818C481.792+533.277+481.569+537.47+484.04+540.199L527.421+588.066C528.745+589.495+530.537+590.244+532.34+590.244Z" opacity="1" fill="#472b29"/>
<path d="M221.025+770.573C222.418+770.573+223.824+770.14+225.018+769.227C248.524+751.518+265.296+724.592+271.082+695.324C273.471+683.319+273.553+672.099+272.382+662.156C277.898+661.629+283.485+660.739+289.059+659.509C292.643+658.712+294.904+655.175+294.119+651.592C293.334+648.019+289.832+645.771+286.202+646.532C280.791+647.715+275.38+648.546+270.028+649.027C267.58+638.907+264.136+630.709+261.337+625.123C251.874+606.243+222.442+578.579+198.444+580.207C190.304+580.722+179.353+584.822+173.579+601.347C169.609+612.638+171.225+623.471+178.241+632.665C194.157+653.524+234.575+661.816+259.065+662.601C260.225+671.607+260.236+681.785+258.07+692.771C252.905+718.877+237.96+742.875+217.043+758.639C214.103+760.841+213.517+764.998+215.731+767.938C217.043+769.672+219.022+770.573+221.025+770.573ZM200.447+593.43C217.183+593.43+241.802+615.812+249.461+631.072C251.651+635.441+254.298+641.625+256.383+649.191C234.142+647.961+200.81+640.348+188.805+624.596C184.53+618.962+183.64+612.802+186.123+605.716C189.789+595.245+195.411+593.711+199.299+593.453C199.662+593.442+200.049+593.43+200.447+593.43Z" opacity="1" fill="#472b29"/>
<path d="M309.368+653.676C309.93+653.676+310.492+653.606+311.055+653.454C314.521+652.552+328.095+648.746+331.515+647.656C335.017+646.532+336.938+642.796+335.825+639.294C334.701+635.792+330.977+633.93+327.463+634.984C324.16+636.05+311.019+639.704+307.681+640.594C304.121+641.519+302.013+645.162+302.95+648.699C303.723+651.697+306.417+653.676+309.368+653.676Z" opacity="1" fill="#472b29"/>
<path d="M348.545+639.271C349.517+639.271+350.512+639.06+351.449+638.603C358.874+635.007+366.522+630.733+374.182+625.954C377.286+624.01+378.246+619.922+376.29+616.819C374.334+613.692+370.223+612.755+367.155+614.711C359.893+619.243+352.655+623.272+345.64+626.657C342.349+628.261+340.967+632.232+342.571+635.546C343.731+637.889+346.073+639.271+348.545+639.271Z" opacity="1" fill="#472b29"/>
<path d="M388.681+614.289C390.192+614.289+391.727+613.774+392.968+612.72L398.367+608.152C401.166+605.774+401.518+601.593+399.152+598.782C396.774+595.995+392.57+595.655+389.782+597.998L384.383+602.565C381.584+604.943+381.233+609.124+383.598+611.935C384.91+613.469+386.796+614.289+388.681+614.289Z" opacity="1" fill="#472b29"/>
<path d="M674.948+670.43C674.948+660.983+682.606+653.325+692.053+653.325C701.5+653.325+709.158+660.983+709.158+670.43C709.158+679.877+701.5+687.535+692.053+687.535C682.606+687.535+674.948+679.877+674.948+670.43Z" opacity="1" fill="#ffffff"/>
</g>
</svg>
