<?xml version="1.0" encoding="UTF-8" standalone="no"?> <!-- Created with Vectornator for iOS (http://vectornator.io/) --><!DOCTYPE svg PUBLIC "-//W3C//DTD SVG 1.1//EN" "http://www.w3.org/Graphics/SVG/1.1/DTD/svg11.dtd">
<svg style="fill-rule:evenodd;clip-rule:evenodd;stroke-linecap:round;stroke-linejoin:round;" xmlns:vectornator="http://vectornator.io" xmlns:xlink="http://www.w3.org/1999/xlink" xmlns="http://www.w3.org/2000/svg" xml:space="preserve" version="1.1" viewBox="0 0 1080 1080">
<metadata>
<vectornator:setting key="DimensionsVisible" value="1"/>
<vectornator:setting key="SnapToGrid" value="0"/>
<vectornator:setting key="SnapToPoints" value="0"/>
<vectornator:setting key="GuidesVisible" value="1"/>
<vectornator:setting key="RulersVisible" value="1"/>
<vectornator:setting key="SnapToEdges" value="0"/>
<vectornator:setting key="DisplayWhiteBackground" value="0"/>
<vectornator:setting key="SnapToGuides" value="1"/>
<vectornator:setting key="GridSpacing" value="36"/>
<vectornator:setting key="Units" value="Pixels"/>
<vectornator:setting key="DynamicGuides" value="1"/>
<vectornator:setting key="New" value="1"/>
</metadata>
<defs/>
<g id="Layer 1" vectornator:layerName="Layer 1">
<path d="M1003.19+290.59C1003.19+277.472+992.555+266.837+979.436+266.837C966.318+266.837+955.683+277.472+955.683+290.59C955.683+303.709+966.318+314.343+979.436+314.343C992.555+314.343+1003.19+303.709+1003.19+290.59Z" opacity="1" fill="#1b1195"/>
<path d="M231.207+100.564C231.207+94.0043+225.889+88.6869+219.33+88.6869C212.771+88.6869+207.454+94.0043+207.454+100.564C207.454+107.123+212.771+112.44+219.33+112.44C225.889+112.44+231.207+107.123+231.207+100.564Z" opacity="1" fill="#f1bc19"/>
<path d="M979.436+540C979.436+297.306+782.694+100.564+540+100.564C297.306+100.564+100.564+297.306+100.564+540C100.564+782.694+297.306+979.436+540+979.436C782.694+979.436+979.436+782.694+979.436+540Z" opacity="1" fill="#140a4b"/>
<path d="M195.577+124.317C195.577+98.0797+174.307+76.8103+148.07+76.8103C121.833+76.8103+100.564+98.0797+100.564+124.317C100.564+150.554+121.833+171.824+148.07+171.824C174.307+171.824+195.577+150.554+195.577+124.317Z" opacity="1" fill="#f1bc19"/>
<path d="M124.317+231.207C124.317+218.088+113.682+207.454+100.564+207.454C87.445+207.454+76.8103+218.088+76.8103+231.207C76.8103+244.325+87.445+254.96+100.564+254.96C113.682+254.96+124.317+244.325+124.317+231.207Z" opacity="1" fill="#190d90"/>
<path d="M195.577+848.793C195.577+835.675+184.942+825.04+171.824+825.04C158.705+825.04+148.07+835.675+148.07+848.793C148.07+861.912+158.705+872.546+171.824+872.546C184.942+872.546+195.577+861.912+195.577+848.793Z" opacity="1" fill="#fbcd59"/>
<path d="M1003.19+694.397C1003.19+668.159+981.92+646.89+955.683+646.89C929.446+646.89+908.176+668.159+908.176+694.397C908.176+720.634+929.446+741.903+955.683+741.903C981.92+741.903+1003.19+720.634+1003.19+694.397Z" opacity="1" fill="#fbcd59"/>
<path d="M860.67+979.436C860.67+966.318+850.035+955.683+836.916+955.683C823.798+955.683+813.163+966.318+813.163+979.436C813.163+992.555+823.798+1003.19+836.916+1003.19C850.035+1003.19+860.67+992.555+860.67+979.436Z" opacity="1" fill="#2012ad"/>
<path d="M943.806+581.568C943.806+565.17+930.513+551.877+914.115+551.877C897.717+551.877+884.423+565.17+884.423+581.568C884.423+597.967+897.717+611.26+914.115+611.26C930.513+611.26+943.806+597.967+943.806+581.568Z" opacity="1" fill="#ffffff"/>
<path d="M896.3+741.903C896.3+735.344+890.982+730.027+884.423+730.027C877.864+730.027+872.546+735.344+872.546+741.903C872.546+748.463+877.864+753.78+884.423+753.78C890.982+753.78+896.3+748.463+896.3+741.903Z" opacity="1" fill="#f1bc19"/>
<path d="M195.577+349.973C195.577+343.414+190.26+338.097+183.7+338.097C177.141+338.097+171.824+343.414+171.824+349.973C171.824+356.533+177.141+361.85+183.7+361.85C190.26+361.85+195.577+356.533+195.577+349.973Z" opacity="1" fill="#ffffff"/>
<g opacity="1">
<path d="M400.342+747.473L388.347+771.761L361.553+775.657L380.948+794.552L376.375+821.239L400.342+808.626L424.309+821.239L419.725+794.552L439.12+775.657L412.314+771.761L400.342+747.473Z" opacity="1" fill="#f1bc19"/>
<path d="M376.363+825.954C377.123+825.954+377.86+825.776+378.561+825.42L400.33+813.971L422.1+825.42C423.692+826.263+425.604+826.121+427.077+825.075C428.514+824.03+429.25+822.237+428.953+820.455L424.785+796.203L442.409+779.042C443.704+777.771+444.155+775.918+443.609+774.208C443.063+772.498+441.59+771.262+439.809+771.001L415.449+767.462L404.547+745.407C402.967+742.2+397.67+742.2+396.102+745.407L385.2+767.462L360.852+771.001C359.071+771.274+357.61+772.498+357.052+774.208C356.494+775.918+356.957+777.795+358.251+779.042L375.865+796.203L371.696+820.455C371.399+822.237+372.112+824.03+373.572+825.075C374.416+825.646+375.389+825.954+376.363+825.954ZM400.342+803.935C399.582+803.935+398.834+804.113+398.145+804.469L382.634+812.617L385.603+795.348C385.877+793.816+385.366+792.26+384.238+791.156L371.696+778.923L389.036+776.405C390.556+776.179+391.886+775.205+392.575+773.828L400.33+758.115L408.086+773.828C408.775+775.217+410.093+776.191+411.625+776.405L428.977+778.923L416.423+791.156C415.307+792.248+414.808+793.792+415.058+795.348L418.027+812.617L402.516+804.469C401.851+804.101+401.079+803.935+400.342+803.935Z" opacity="1" fill="#472b29"/>
</g>
<g opacity="1">
<path d="M754.35+281.445L742.366+305.733L715.561+309.628L734.955+328.536L730.383+355.223L754.35+342.61L778.317+355.223L773.745+328.536L793.127+309.628L766.333+305.733L754.35+281.445Z" opacity="1" fill="#f1bc19"/>
<path d="M730.371+359.938C731.131+359.938+731.867+359.76+732.568+359.404L754.338+347.954L776.108+359.404C777.699+360.247+779.612+360.104+781.084+359.059C782.521+358.014+783.258+356.221+782.961+354.439L778.792+330.187L796.417+313.025C797.712+311.754+798.163+309.902+797.617+308.191C797.058+306.481+795.598+305.246+793.816+304.985L769.457+301.445L758.554+279.39C756.975+276.184+751.678+276.184+750.11+279.39L739.207+301.445L714.86+304.985C713.079+305.258+711.618+306.481+711.06+308.191C710.501+309.902+710.965+311.778+712.259+313.025L729.872+330.187L725.703+354.439C725.407+356.221+726.119+358.014+727.58+359.059C728.435+359.629+729.397+359.938+730.371+359.938ZM754.35+337.907C753.59+337.907+752.842+338.085+752.153+338.441L736.642+346.589L739.611+329.32C739.884+327.788+739.373+326.232+738.245+325.127L725.703+312.895L743.043+310.377C744.564+310.151+745.894+309.177+746.583+307.799L754.338+292.087L762.094+307.799C762.782+309.189+764.101+310.163+765.633+310.377L782.985+312.895L770.431+325.127C769.315+326.22+768.816+327.764+769.065+329.32L772.034+346.589L756.523+338.441C755.858+338.085+755.098+337.907+754.35+337.907Z" opacity="1" fill="#472b29"/>
</g>
<g opacity="1">
<path d="M254.046+544.964L238.392+576.711L203.368+581.782L228.701+606.497L222.727+641.391L254.046+624.906L285.388+641.391L279.402+606.497L304.747+581.782L269.711+576.711L254.046+544.964Z" opacity="1" fill="#f1bc19"/>
<path d="M222.727+646.082C223.487+646.082+224.223+645.904+224.924+645.548L254.069+630.239L283.191+645.548C284.794+646.391+286.707+646.249+288.167+645.203C289.604+644.158+290.341+642.365+290.044+640.583L284.486+608.16L308.061+585.191C309.355+583.92+309.807+582.067+309.26+580.357C308.702+578.659+307.241+577.411+305.46+577.15L272.87+572.411L258.309+542.91C256.73+539.703+251.433+539.703+249.865+542.91L235.292+572.411L202.715+577.15C200.933+577.423+199.472+578.647+198.914+580.357C198.356+582.067+198.819+583.944+200.114+585.191L223.677+608.16L218.119+640.583C217.822+642.365+218.534+644.158+219.995+645.203C220.767+645.774+221.741+646.082+222.727+646.082ZM254.058+620.203C253.297+620.203+252.561+620.381+251.86+620.738L228.986+632.757L233.357+607.293C233.63+605.761+233.119+604.205+231.991+603.101L213.499+585.06L239.069+581.355C240.589+581.129+241.92+580.155+242.608+578.777L254.058+555.606L265.495+578.777C266.184+580.167+267.502+581.141+269.034+581.355L294.616+585.06L276.101+603.101C274.984+604.193+274.485+605.737+274.735+607.293L279.105+632.757L256.243+620.738C255.566+620.381+254.806+620.203+254.058+620.203Z" opacity="1" fill="#472b29"/>
</g>
<g opacity="1">
<path d="M822.332+562.958L788.78+529.382L616.996+488.491L692.556+579.169L822.332+562.958Z" opacity="1" fill="#fde751"/>
<path d="M639.384+502.363L696.036+570.357L804.434+556.805L784.564+536.936L639.384+502.363M594.609+474.619L792.997+521.852L840.23+569.086L689.076+587.982L594.609+474.619L594.609+474.619Z" opacity="1" fill="#472b29"/>
</g>
<g opacity="1">
<path d="M590.761+680.952L500.094+605.393L540.998+777.189L574.549+810.728L590.761+680.952Z" opacity="1" fill="#fde751"/>
<path d="M513.966+627.78L548.539+772.961L568.409+792.83L581.96+684.432L513.966+627.78M486.222+583.005L599.585+677.472L580.689+828.627L533.456+781.393L486.222+583.005L486.222+583.005Z" opacity="1" fill="#472b29"/>
</g>
<g opacity="1">
<path d="M770.063+792.949C783.899+792.949+795.503+791.334+801.821+790.229C804.6+774.196+810.598+724.148+785.502+688.838C770.728+668.066+747.307+655.536+715.822+651.557L663.149+704.219C672.401+777.414+726.155+792.949+770.063+792.949C770.051+792.949+770.051+792.949+770.063+792.949Z" opacity="1" fill="#ea5167"/>
<path d="M718.767+660.358L695.37+683.755L671.962+707.164C679.895+758.578+712.865+784.635+770.075+784.635C779.778+784.635+788.329+783.804+794.541+782.949C797.142+763.887+799.552+722.877+778.685+693.589C765.942+675.703+745.811+664.539+718.767+660.358M712.782+642.84C842.724+656.106+808.911+797.308+808.911+797.308C808.911+797.308+792.367+801.263+770.075+801.263C727.236+801.263+663.173+786.643+654.443+701.178C673.886+681.736+683.613+672.009+683.613+672.009C683.613+672.009+693.328+662.282+712.782+642.84L712.782+642.84Z" opacity="1" fill="#472b29"/>
</g>
<g opacity="1">
<path d="M745.918+744.849C750.312+744.849+753.839+744.552+755.93+744.314C757.343+732.533+760.751+677.864+704.42+667.187L678.779+692.817C687.366+738.043+724.433+744.849+745.918+744.849L745.918+744.849Z" opacity="1" fill="#fde751"/>
<path d="M705.406+670.406L693.708+682.104L682.009+693.803C690.75+735.549+725.608+741.879+745.917+741.879C748.815+741.879+751.31+741.749+753.245+741.594C754.552+726.95+754.659+680.703+705.406+670.406M703.423+663.98C770.728+675.596+758.554+746.951+758.554+746.951C758.554+746.951+753.519+747.806+745.906+747.806C724.86+747.806+684.111+741.238+675.572+691.819C684.848+682.532+689.491+677.9+689.491+677.9C689.491+677.9+694.147+673.268+703.423+663.98L703.423+663.98Z" opacity="1" fill="#472b29"/>
</g>
<g opacity="1">
<path d="M717.52+644.23L694.895+600.868L612.483+683.292L655.833+705.929L717.52+644.23Z" opacity="1" fill="#bebacb"/>
<path d="M692.769+614.764L626.367+681.166L654.277+695.727L707.342+642.662L692.769+614.764M697.033+586.984L727.722+645.797L657.401+716.119L598.588+685.442L697.033+586.984L697.033+586.984Z" opacity="1" fill="#472b29"/>
</g>
<g opacity="1">
<path d="M607.851+692.484C612.84+692.484+617.531+690.537+621.046+687.009L698.708+609.348C705.525+602.542+705.988+591.45+699.753+584.098L507.304+356.743C449.844+287.906+377.397+273.464+326.731+273.464C319.07+273.464+311.446+273.808+304.082+274.497C295.032+275.329+287.859+282.858+287.395+292.015C285.388+331.862+289.26+431.459+368.299+495.486L595.797+688.066C599.158+690.905+603.445+692.484+607.851+692.484C607.839+692.484+607.839+692.484+607.851+692.484Z" opacity="1" fill="#bebacb"/>
<path d="M326.766+281.79C319.355+281.79+311.98+282.122+304.842+282.787C299.878+283.25+295.946+287.395+295.685+292.443C293.749+331.03+297.455+427.421+373.798+489.263L601.165+681.712C603.552+683.731+606.117+684.159+607.839+684.159C610.607+684.159+613.208+683.09+615.167+681.13L653.672+642.626L654.325+641.973L692.829+603.481C696.606+599.704+696.867+593.552+693.411+589.466L500.878+362.028C445.521+295.709+375.639+281.79+326.766+281.79M326.766+265.162C375.104+265.162+452.778+278.464+513.646+351.375L706.095+578.73C715.157+589.431+714.504+605.31+704.575+615.239L666.071+653.743L665.418+654.396L626.913+692.9C621.664+698.138+614.764+700.81+607.828+700.81C601.652+700.81+595.452+698.696+590.405+694.42L363.05+501.959C282.027+436.341+276.849+335.757+279.07+291.612C279.735+278.31+290.032+267.466+303.298+266.243C309.937+265.614+317.859+265.162+326.766+265.162L326.766+265.162Z" opacity="1" fill="#472b29"/>
</g>
<path d="M521.306+452.742C521.306+421.284+495.804+395.782+464.346+395.782C432.887+395.782+407.385+421.284+407.385+452.742C407.385+484.201+432.887+509.703+464.346+509.703C495.804+509.703+521.306+484.201+521.306+452.742Z" opacity="1" fill="#f7f9fa"/>
<path d="M410.77+478.051C411.447+478.051+412.124+477.933+412.789+477.707C415.877+476.591+417.468+473.182+416.352+470.094C412.599+459.69+412.338+448.122+415.628+437.54C416.602+434.405+414.856+431.079+411.72+430.105C408.549+429.096+405.259+430.889+404.285+434.013C400.235+447.065+400.556+461.305+405.188+474.132C406.055+476.543+408.335+478.051+410.77+478.051Z" opacity="1" fill="#472b29"/>
<path d="M464.334+515.593C480.439+515.593+496.543+509.465+508.812+497.208C533.337+472.695+533.337+432.778+508.812+408.264C496.935+396.387+481.139+389.843+464.334+389.843C447.528+389.843+431.744+396.387+419.868+408.264C417.552+410.58+417.552+414.345+419.868+416.661C422.184+418.977+425.948+418.977+428.264+416.661C437.908+407.017+450.711+401.72+464.334+401.72C477.956+401.72+490.771+407.017+500.415+416.661C520.309+436.554+520.309+468.918+500.415+488.812C480.522+508.705+448.158+508.681+428.264+488.812C425.948+486.496+422.184+486.496+419.868+488.812C417.552+491.128+417.552+494.892+419.868+497.208C432.124+509.477+448.229+515.593+464.334+515.593Z" opacity="1" fill="#472b29"/>
<path d="M317.063+414.309C288.512+351.446+296.03+288.12+296.279+283.417C296.279+283.286+362.753+270.234+427.908+303.215L317.063+414.309Z" opacity="1" fill="#ea4989"/>
<path d="M368.133+362.86C368.893+362.86+369.653+362.575+370.235+361.993L430.093+302.134C431.257+300.97+431.257+299.094+430.093+297.93C428.929+296.766+427.053+296.766+425.889+297.93L366.031+357.788C364.867+358.952+364.867+360.829+366.031+361.993C366.613+362.575+367.373+362.86+368.133+362.86Z" opacity="1" fill="#472b29"/>
<path d="M330.092+400.889C330.852+400.889+331.612+400.604+332.194+400.022L355.686+376.53C356.85+375.366+356.85+373.489+355.686+372.325C354.522+371.161+352.646+371.161+351.482+372.325L327.99+395.817C326.826+396.981+326.826+398.858+327.99+400.022C328.572+400.604+329.332+400.889+330.092+400.889Z" opacity="1" fill="#472b29"/>
<path d="M368.133+362.86C368.893+362.86+369.653+362.575+370.235+361.993L430.093+302.134C431.257+300.97+431.257+299.094+430.093+297.93C428.929+296.766+427.053+296.766+425.889+297.93L366.031+357.788C364.867+358.952+364.867+360.829+366.031+361.993C366.613+362.575+367.373+362.86+368.133+362.86Z" opacity="1" fill="#472b29"/>
<path d="M330.092+400.889C330.852+400.889+331.612+400.604+332.194+400.022L355.686+376.53C356.85+375.366+356.85+373.489+355.686+372.325C354.522+371.161+352.646+371.161+351.482+372.325L327.99+395.817C326.826+396.981+326.826+398.858+327.99+400.022C328.572+400.604+329.332+400.889+330.092+400.889Z" opacity="1" fill="#472b29"/>
<path d="M560.155+634.384C560.915+634.384+561.675+634.099+562.257+633.517L619.526+576.248C620.69+575.084+620.69+573.207+619.526+572.043C618.362+570.879+616.486+570.879+615.322+572.043L558.053+629.312C556.889+630.476+556.889+632.353+558.053+633.517C558.634+634.099+559.395+634.384+560.155+634.384Z" opacity="1" fill="#472b29"/>
<path d="M631.343+563.195C632.104+563.195+632.864+562.91+633.446+562.328L655.928+539.846C657.092+538.682+657.092+536.805+655.928+535.641C654.764+534.477+652.888+534.477+651.724+535.641L629.241+558.124C628.077+559.288+628.077+561.164+629.241+562.328C629.823+562.91+630.583+563.195+631.343+563.195Z" opacity="1" fill="#472b29"/>
</g>
</svg>
